<?xml version="1.0" encoding="utf-8"?>
<!-- Generator: Adobe Illustrator 23.1.0, SVG Export Plug-In . SVG Version: 6.00 Build 0)  -->
<svg version="1.1" xmlns="http://www.w3.org/2000/svg" xmlns:xlink="http://www.w3.org/1999/xlink" x="0px" y="0px"
	 viewBox="0 0 132 132" style="enable-background:new 0 0 132 132;" xml:space="preserve">
<style type="text/css">
	.st0{display:none;}
	.st1{display:inline;}
	.st2{display:none;fill:none;stroke:#333333;stroke-width:8;stroke-linecap:round;stroke-linejoin:round;stroke-miterlimit:10;}
	.st3{fill:none;stroke:#333333;stroke-width:8;stroke-linecap:round;stroke-linejoin:round;stroke-miterlimit:10;}
	.st4{display:inline;fill:none;stroke:#333333;stroke-width:8;stroke-linecap:round;stroke-linejoin:round;stroke-miterlimit:10;}
	.st5{fill:#333333;}
	.st6{display:none;fill:none;stroke:#FF5777;stroke-width:8;stroke-linecap:round;stroke-linejoin:round;stroke-miterlimit:10;}
	.st7{fill:none;stroke:#FF5777;stroke-width:8;stroke-linecap:round;stroke-linejoin:round;stroke-miterlimit:10;}
	.st8{display:inline;fill:none;stroke:#FF5777;stroke-width:8;stroke-linecap:round;stroke-linejoin:round;stroke-miterlimit:10;}
	.st9{fill:#FF5777;}
</style>
<g id="我的" class="st0">
	<g class="st1">
		<path class="st2" d="M68.83,13.86c13.64,1.39,24.29,12.91,24.29,26.91c0,14.94-12.11,27.05-27.05,27.05S39.01,55.72,39.01,40.78
			c0-5.18,1.45-10.01,3.97-14.12"/>
		<path class="st2" d="M53.36,16.88c0.5-0.27,1.02-0.52,1.54-0.76"/>
		<path class="st3" d="M9.36,117.92c8.73-22.1,30.82-37.79,56.7-37.79c25.86,0,47.95,15.67,56.69,37.75"/>
	</g>
	<circle class="st4" cx="66" cy="41" r="27"/>
</g>
<g id="购物车" class="st0">
	<g class="st1">
		<circle class="st3" cx="98.68" cy="103.15" r="10.05"/>
		<circle class="st3" cx="56.67" cy="103.15" r="10.05"/>
		<line class="st3" x1="33.72" y1="29.15" x2="57.93" y2="29.11"/>
		<line class="st3" x1="72.49" y1="29.15" x2="70.81" y2="29.15"/>
		<path class="st3" d="M4.83,17h23.35c1.95,0,3.65,1.33,4.11,3.22l8.65,54.05c0.86,3.52,4.02,6,7.65,6h59.89
			c3.61,0,6.76-2.46,7.64-5.96l10.4-40.3c0.6-2.37-1.19-4.68-3.64-4.7l-37.51-0.13c-31.37,0-33.08-0.06-33.08-0.06"/>
	</g>
</g>
<g id="分类" class="st0">
	<g id="原始分类" class="st1">
		<g>
			<path class="st5" d="M30.12,16.36v7c8.23,0,18.8,0.37,25.53,0.65v31.52H24.13c-0.53-12.55-0.8-25.57-0.55-32.06
				c1.52-0.06,3.63-0.11,6.54-0.11L30.12,16.36 M30.12,16.36c-6.7,0-11.96,0.24-12.68,0.96c-2.15,2.15,0,45.22,0,45.22h45.22V17.32
				C62.66,17.32,43.52,16.36,30.12,16.36L30.12,16.36z"/>
		</g>
		<g>
			<path class="st5" d="M83.95,16.36v7c8.23,0,18.8,0.37,25.53,0.65v31.52H77.96c-0.53-12.55-0.8-25.57-0.55-32.06
				c1.52-0.06,3.63-0.11,6.54-0.11V16.36 M83.95,16.36c-6.7,0-11.96,0.24-12.68,0.96c-2.15,2.15,0,45.22,0,45.22h45.22V17.32
				C116.49,17.32,97.35,16.36,83.95,16.36L83.95,16.36z"/>
		</g>
		<g>
			<path class="st5" d="M30.12,70.19v7c8.23,0,18.8,0.37,25.53,0.65v31.52H24.13c-0.53-12.55-0.8-25.57-0.55-32.06
				c1.52-0.06,3.63-0.11,6.54-0.11L30.12,70.19 M30.12,70.19c-6.7,0-11.96,0.24-12.68,0.96c-2.15,2.15,0,45.22,0,45.22h45.22V71.14
				C62.66,71.14,43.52,70.19,30.12,70.19L30.12,70.19z"/>
		</g>
		<g>
			<path class="st5" d="M83.95,70.19v7c8.23,0,18.8,0.37,25.53,0.65v31.52H77.96c-0.53-12.55-0.8-25.57-0.55-32.06
				c1.52-0.06,3.63-0.11,6.54-0.11V70.19 M83.95,70.19c-6.7,0-11.96,0.24-12.68,0.96c-2.15,2.15,0,45.22,0,45.22h45.22V71.14
				C116.49,71.14,97.35,70.19,83.95,70.19L83.95,70.19z"/>
		</g>
	</g>
</g>
<g id="首页" class="st0">
	<g id="首页_2_" class="st1">
		<g>
			<line class="st3" x1="49.94" y1="26.55" x2="50.59" y2="26.07"/>
			<path class="st3" d="M14.98,52.7l27.06-20.25c16.32-12.51,16.52-12.36,16.52-12.36l3.58-2.68c2.94-2.16,7.06-2.12,9.96,0.09
				l45.9,34.3"/>
			<path class="st3" d="M107.44,61.24v45.18c0,5.04-3.42,9.14-7.64,9.14H34.79c-4.22,0-7.64-4.09-7.64-9.14V61.27"/>
			<polyline class="st3" points="52.17,114.48 52.17,77.99 82.51,77.99 82.51,114.48 			"/>
		</g>
	</g>
</g>
<g id="红我的" class="st0">
	<g class="st1">
		<path class="st6" d="M68.83,13.86c13.64,1.39,24.29,12.91,24.29,26.91c0,14.94-12.11,27.05-27.05,27.05S39.01,55.72,39.01,40.78
			c0-5.18,1.45-10.01,3.97-14.12"/>
		<path class="st6" d="M53.36,16.88c0.5-0.27,1.02-0.52,1.54-0.76"/>
		<path class="st7" d="M9.36,117.92c8.73-22.1,30.82-37.79,56.7-37.79c25.86,0,47.95,15.67,56.69,37.75"/>
	</g>
	<circle class="st8" cx="66" cy="41" r="27"/>
</g>
<g id="红购物车" class="st0">
	<g class="st1">
		<circle class="st7" cx="98.68" cy="103.15" r="10.05"/>
		<circle class="st7" cx="56.67" cy="103.15" r="10.05"/>
		<line class="st7" x1="33.72" y1="29.15" x2="57.93" y2="29.11"/>
		<line class="st7" x1="72.49" y1="29.15" x2="70.81" y2="29.15"/>
		<path class="st7" d="M4.83,17h23.35c1.95,0,3.65,1.33,4.11,3.22l8.65,54.05c0.86,3.52,4.02,6,7.65,6h59.89
			c3.61,0,6.76-2.46,7.64-5.96l10.4-40.3c0.6-2.37-1.19-4.68-3.64-4.7l-37.51-0.13c-31.37,0-33.08-0.06-33.08-0.06"/>
	</g>
</g>
<g id="红分类" class="st0">
	<g id="原始分类_1_" class="st1">
		<g>
			<path class="st9" d="M30.12,16.36v7c8.23,0,18.8,0.37,25.53,0.65v31.52H24.13c-0.53-12.55-0.8-25.57-0.55-32.06
				c1.52-0.06,3.63-0.11,6.54-0.11L30.12,16.36 M30.12,16.36c-6.7,0-11.96,0.24-12.68,0.96c-2.15,2.15,0,45.22,0,45.22h45.22V17.32
				C62.66,17.32,43.52,16.36,30.12,16.36L30.12,16.36z"/>
		</g>
		<g>
			<path class="st9" d="M83.95,16.36v7c8.23,0,18.8,0.37,25.53,0.65v31.52H77.96c-0.53-12.55-0.8-25.57-0.55-32.06
				c1.52-0.06,3.63-0.11,6.54-0.11V16.36 M83.95,16.36c-6.7,0-11.96,0.24-12.68,0.96c-2.15,2.15,0,45.22,0,45.22h45.22V17.32
				C116.49,17.32,97.35,16.36,83.95,16.36L83.95,16.36z"/>
		</g>
		<g>
			<path class="st9" d="M30.12,70.19v7c8.23,0,18.8,0.37,25.53,0.65v31.52H24.13c-0.53-12.55-0.8-25.57-0.55-32.06
				c1.52-0.06,3.63-0.11,6.54-0.11L30.12,70.19 M30.12,70.19c-6.7,0-11.96,0.24-12.68,0.96c-2.15,2.15,0,45.22,0,45.22h45.22V71.14
				C62.66,71.14,43.52,70.19,30.12,70.19L30.12,70.19z"/>
		</g>
		<g>
			<path class="st9" d="M83.95,70.19v7c8.23,0,18.8,0.37,25.53,0.65v31.52H77.96c-0.53-12.55-0.8-25.57-0.55-32.06
				c1.52-0.06,3.63-0.11,6.54-0.11V70.19 M83.95,70.19c-6.7,0-11.96,0.24-12.68,0.96c-2.15,2.15,0,45.22,0,45.22h45.22V71.14
				C116.49,71.14,97.35,70.19,83.95,70.19L83.95,70.19z"/>
		</g>
	</g>
</g>
<g id="红首页">
	<g id="首页_3_">
		<g>
			<line class="st7" x1="49.94" y1="26.55" x2="50.59" y2="26.07"/>
			<path class="st7" d="M14.98,52.7l27.06-20.25c16.32-12.51,16.52-12.36,16.52-12.36l3.58-2.68c2.94-2.16,7.06-2.12,9.96,0.09
				l45.9,34.3"/>
			<path class="st7" d="M107.44,61.24v45.18c0,5.04-3.42,9.14-7.64,9.14H34.79c-4.22,0-7.64-4.09-7.64-9.14V61.27"/>
			<polyline class="st7" points="52.17,114.48 52.17,77.99 82.51,77.99 82.51,114.48 			"/>
		</g>
	</g>
</g>
</svg>
